<svg width="21" height="15" viewBox="0 0 21 15" fill="none" xmlns="http://www.w3.org/2000/svg">
    <path d="M12.2055 2.39826C12.095 2.29526 12.0063 2.17106 11.9448 2.03306C11.8833 1.89507 11.8503 1.7461 11.8476 1.59504C11.8449 1.44399 11.8727 1.29394 11.9293 1.15386C11.9859 1.01378 12.0701 0.886528 12.1769 0.7797C12.2838 0.672871 12.411 0.588655 12.5511 0.532073C12.6912 0.475491 12.8412 0.447705 12.9923 0.45037C13.1433 0.453035 13.2923 0.486098 13.4303 0.547586C13.5683 0.609073 13.6925 0.697727 13.7955 0.808257L19.7955 6.80826C20.0062 7.0192 20.1245 7.30513 20.1245 7.60326C20.1245 7.90138 20.0062 8.18732 19.7955 8.39826L13.7955 14.3983C13.6925 14.5088 13.5683 14.5974 13.4303 14.6589C13.2923 14.7204 13.1433 14.7535 12.9923 14.7561C12.8412 14.7588 12.6912 14.731 12.5511 14.6744C12.411 14.6179 12.2838 14.5336 12.1769 14.4268C12.0701 14.32 11.9859 14.1927 11.9293 14.0527C11.8727 13.9126 11.8449 13.7625 11.8476 13.6115C11.8503 13.4604 11.8833 13.3114 11.9448 13.1735C12.0063 13.0355 12.095 12.9113 12.2055 12.8083L16.2855 8.72826L1.7505 8.72826C1.45213 8.72826 1.16598 8.60973 0.955005 8.39875C0.744028 8.18777 0.625501 7.90163 0.625501 7.60326C0.625501 7.30489 0.744028 7.01874 0.955005 6.80776C1.16598 6.59678 1.45213 6.47826 1.7505 6.47826L16.2855 6.47826L12.2055 2.39826Z" fill="#37B2FF"/>
</svg>
