<svg width="8" height="14" viewBox="0 0 8 14" fill="none" xmlns="http://www.w3.org/2000/svg">
    <path d="M7.70705 13.364C7.89452 13.1764 7.99983 12.9221 7.99983 12.657C7.99983 12.3918 7.89452 12.1375 7.70705 11.95L2.75705 6.99995L7.70705 2.04995C7.88921 1.86135 7.99 1.60875 7.98772 1.34655C7.98544 1.08435 7.88027 0.83354 7.69487 0.648132C7.50946 0.462724 7.25865 0.357556 6.99645 0.355278C6.73425 0.352999 6.48165 0.453793 6.29305 0.635952L0.636048 6.29295C0.448577 6.48048 0.343261 6.73479 0.343261 6.99995C0.343261 7.26512 0.448577 7.51942 0.636048 7.70695L6.29305 13.364C6.48058 13.5514 6.73488 13.6567 7.00005 13.6567C7.26521 13.6567 7.51952 13.5514 7.70705 13.364Z" fill="#3793FE"/>
</svg>
