<svg width="17" height="14" viewBox="0 0 17 14" fill="none" xmlns="http://www.w3.org/2000/svg">
    <path d="M8.5 4.24121C9.03571 2.26746 11.059 1.25965 15.4643 1.24121C15.5347 1.24097 15.6045 1.25373 15.6696 1.27877C15.7347 1.30381 15.7939 1.34063 15.8437 1.38711C15.8935 1.43359 15.9329 1.48881 15.9598 1.54958C15.9866 1.61035 16.0003 1.67548 16 1.74121V10.7412C16 10.8738 15.9436 11.001 15.8431 11.0948C15.7426 11.1885 15.6064 11.2412 15.4643 11.2412C11.1786 11.2412 9.52288 12.0478 8.5 13.2412M8.5 4.24121C7.96429 2.26746 5.94096 1.25965 1.53572 1.24121C1.46529 1.24097 1.39551 1.25373 1.3304 1.27877C1.26528 1.30381 1.20612 1.34063 1.15632 1.38711C1.10652 1.43359 1.06707 1.48881 1.04024 1.54958C1.01341 1.61035 0.999738 1.67548 1 1.74121V10.6809C1 10.9896 1.20491 11.2412 1.53572 11.2412C5.82143 11.2412 7.48315 12.0537 8.5 13.2412M8.5 4.24121V13.2412" stroke="#37B2FF" stroke-width="1.5" stroke-linecap="round" stroke-linejoin="round"/>
</svg>
