<svg width="36" height="36" viewBox="0 0 36 36" fill="none" xmlns="http://www.w3.org/2000/svg">
    <circle opacity="0.1" cx="18" cy="18" r="18" fill="#3793FE"/>
    <path fill-rule="evenodd" clip-rule="evenodd" d="M16.1213 13.4607C16.005 13.3735 15.8668 13.3204 15.722 13.3074C15.5773 13.2943 15.4318 13.3218 15.3018 13.3868C15.1718 13.4518 15.0624 13.5517 14.986 13.6754C14.9096 13.799 14.8691 13.9415 14.8691 14.0868V23.4781C14.8691 23.6235 14.9096 23.7659 14.986 23.8896C15.0624 24.0132 15.1718 24.1131 15.3018 24.1781C15.4318 24.2431 15.5773 24.2706 15.722 24.2576C15.8668 24.2445 16.005 24.1914 16.1213 24.1042L22.3822 19.4085C22.4794 19.3356 22.5583 19.2411 22.6126 19.1325C22.6669 19.0238 22.6952 18.904 22.6952 18.7825C22.6952 18.661 22.6669 18.5411 22.6126 18.4325C22.5583 18.3238 22.4794 18.2293 22.3822 18.1564L16.1213 13.4607Z" fill="#37B2FF"/>
</svg>
