<svg width="89" height="89" viewBox="0 0 89 89" fill="none" xmlns="http://www.w3.org/2000/svg">
    <path opacity="0.5" d="M56.6152 7.4165H49.1986C42.2047 7.4165 38.7077 7.4165 36.5383 9.58959C34.3652 11.7627 34.3652 15.2559 34.3652 22.2498V35.229H71.4486V22.2498C71.4486 15.2559 71.4486 11.7627 69.2755 9.58959C67.1024 7.4165 63.6091 7.4165 56.6152 7.4165Z" fill="#37B2FF"/>
    <path fill-rule="evenodd" clip-rule="evenodd" d="M58.2279 21.4457C56.5943 20.555 54.7634 20.0884 52.9028 20.0884C51.0421 20.0884 49.2112 20.555 47.5776 21.4457L29.7998 31.1392C28.0447 32.0961 26.5798 33.5082 25.5592 35.2271C24.5386 36.9459 24 38.908 24 40.907V59.2188C24 61.2178 24.5386 63.1799 25.5592 64.8987C26.5798 66.6175 28.0447 68.0296 29.7998 68.9865L47.5776 78.6801C49.2112 79.5707 51.0421 80.0374 52.9028 80.0374C54.7634 80.0374 56.5943 79.5707 58.2279 78.6801L76.0094 68.9865C77.7645 68.0296 79.2294 66.6175 80.25 64.8987C81.2706 63.1799 81.8092 61.2178 81.8092 59.2188V40.9033C81.8092 38.9043 81.2706 36.9422 80.25 35.2233C79.2294 33.5045 77.7645 32.0924 76.0094 31.1355L58.2279 21.4457ZM52.9028 38.9379C51.8496 38.9379 51.145 40.1987 49.7358 42.7315L49.3724 43.3842C48.9719 44.1036 48.7717 44.4596 48.4602 44.6969C48.1487 44.9343 47.7556 45.0232 46.9805 45.1975L46.276 45.3607C43.5355 45.98 42.1671 46.2878 41.8445 47.3335C41.5182 48.383 42.449 49.4732 44.3142 51.6537L44.7963 52.2174C45.3303 52.8367 45.5936 53.1445 45.7123 53.5302C45.831 53.9158 45.7939 54.3275 45.7123 55.1544L45.6381 55.9072C45.3563 58.8183 45.2154 60.2756 46.0683 60.9209C46.9212 61.5661 48.2006 60.9765 50.763 59.7972L51.4268 59.4932C52.1537 59.1594 52.5171 58.9925 52.9028 58.9925C53.2884 58.9925 53.6555 59.1594 54.3824 59.4932L55.0462 59.7972C57.6049 60.9802 58.888 61.5661 59.7409 60.9209C60.5938 60.2756 60.4529 58.8183 60.1711 55.9072L60.0969 55.1544C60.0153 54.3275 59.9745 53.9158 60.0969 53.5302C60.2156 53.1482 60.4789 52.8367 61.0092 52.2174L61.4912 51.6537C63.3602 49.4732 64.291 48.383 63.9647 47.3335C63.6384 46.2878 62.27 45.98 59.537 45.3607L58.8287 45.1975C58.0499 45.0232 57.6605 44.938 57.349 44.6969C57.0375 44.4596 56.8373 44.1036 56.4368 43.3842L56.0734 42.7315C54.6642 40.2024 53.9596 38.9379 52.9028 38.9379Z" fill="#37B2FF"/>
</svg>
