<svg width="21" height="22" viewBox="0 0 21 22" fill="none" xmlns="http://www.w3.org/2000/svg">
    <path d="M1.42996 20.57H6.70939V13.3101C6.70939 12.9831 6.82045 12.709 7.04257 12.4879C7.26374 12.2658 7.53782 12.1547 7.8648 12.1547H12.1547C12.4817 12.1547 12.7562 12.2658 12.9784 12.4879C13.1995 12.709 13.3101 12.9831 13.3101 13.3101V20.57H18.5895V8.14079C18.5895 7.99398 18.5576 7.86051 18.4937 7.7404C18.4299 7.62028 18.3426 7.51541 18.232 7.4258L10.5331 1.62301C10.3863 1.49527 10.2119 1.43139 10.0098 1.43139C9.80765 1.43139 9.63367 1.49527 9.48781 1.62301L1.78746 7.4258C1.67782 7.51732 1.5906 7.62219 1.52577 7.7404C1.46095 7.85861 1.42901 7.99207 1.42996 8.14079V20.57ZM0 20.57V8.14079C0 7.77472 0.0819845 7.42819 0.245954 7.1012C0.409923 6.77422 0.635857 6.50491 0.923757 6.29327L8.62411 0.461879C9.02736 0.15396 9.48781 0 10.0055 0C10.5231 0 10.9864 0.15396 11.3954 0.461879L19.0957 6.29184C19.3846 6.50348 19.6105 6.77326 19.7735 7.1012C19.9375 7.42819 20.0195 7.77472 20.0195 8.14079V20.57C20.0195 20.9533 19.877 21.2874 19.5919 21.5724C19.3069 21.8575 18.9728 22 18.5895 22H13.0356C12.7076 22 12.4331 21.8894 12.2119 21.6682C11.9907 21.4461 11.8801 21.1716 11.8801 20.8446V13.5861H8.13936V20.8446C8.13936 21.1725 8.02877 21.4471 7.80761 21.6682C7.58644 21.8894 7.31236 22 6.98538 22H1.42996C1.04673 22 0.712599 21.8575 0.427559 21.5724C0.142519 21.2874 0 20.9533 0 20.57Z" fill="#A1A1A1"/>
</svg>