<svg width="91" height="91" viewBox="0 0 91 91" fill="none" xmlns="http://www.w3.org/2000/svg">
    <path opacity="0.5" d="M54.8906 82.4535C66.7135 80.0859 82.0007 71.5799 82.0007 49.587C82.0007 29.576 67.3526 16.2479 56.8195 10.1247C54.4784 8.76311 51.7439 10.552 51.7439 13.2562V20.1699C51.7439 25.6237 49.452 35.5782 43.0829 39.7196C39.8303 41.8337 36.313 38.6681 35.9196 34.8104L35.5944 31.641C35.2162 27.9572 31.4643 25.722 28.5219 27.9686C23.2307 31.9965 17.7051 39.069 17.7051 49.5833C17.7051 76.4777 37.7086 83.2061 47.7084 83.2061C48.2934 83.2061 48.9036 83.1872 49.539 83.1494C51.2258 82.9376 49.539 83.5238 54.8906 82.4497" fill="#FDBF2F"/>
    <path d="M36.6133 69.7573C36.6133 79.6664 44.5973 82.7298 49.5367 83.1534C51.2235 82.9416 49.5367 83.5279 54.8884 82.4538C58.818 81.0657 63.0879 77.503 63.0879 69.7573C63.0879 64.8519 59.9904 61.8224 57.5661 60.4041C56.8248 59.9692 55.9625 60.5176 55.8982 61.3724C55.6864 64.0879 53.0767 66.2513 51.3029 64.1862C49.7334 62.3633 49.0715 59.6969 49.0715 57.9912V55.7597C49.0715 54.4209 47.7213 53.5283 46.564 54.2166C42.2675 56.762 36.6133 62.004 36.6133 69.7573Z" fill="#EB7100"/>
</svg>
