<svg width="22" height="21" viewBox="0 0 22 21" fill="none" xmlns="http://www.w3.org/2000/svg">
    <path d="M3.64229 14.8167C3.78346 14.9584 3.89163 15.1295 3.9591 15.3178C4.02658 15.5061 4.05168 15.707 4.03263 15.9061C3.93681 16.8276 3.75559 17.7383 3.49132 18.6263C5.38863 18.1869 6.54741 17.6783 7.07376 17.4117C7.3723 17.2605 7.71611 17.2247 8.03942 17.3111C8.96603 17.5591 9.92138 17.6835 10.8806 17.681C16.3155 17.681 20.4012 13.8633 20.4012 9.52054C20.4012 5.17781 16.3155 1.36008 10.8806 1.36008C5.44575 1.36008 1.36008 5.17917 1.36008 9.52054C1.36008 11.5171 2.19924 13.3696 3.64229 14.8167ZM2.97177 20.1278C2.64951 20.1916 2.32622 20.2501 2.00203 20.3032C1.73002 20.3468 1.52329 20.0639 1.63073 19.8109C1.75117 19.5259 1.86186 19.237 1.96259 18.9445L1.96667 18.9309C2.30397 17.9517 2.57871 16.8255 2.67935 15.7769C1.01054 14.104 0 11.9143 0 9.52054C0 4.26248 4.8718 0 10.8806 0C16.8894 0 21.7612 4.26248 21.7612 9.52054C21.7612 14.7786 16.8894 19.0411 10.8806 19.0411C9.8029 19.0435 8.72959 18.9035 7.68852 18.6249C6.98128 18.9826 5.45935 19.6341 2.97177 20.1278Z" fill="#A1A1A1"/>
</svg>