<svg width="19" height="22" viewBox="0 0 19 22" fill="none" xmlns="http://www.w3.org/2000/svg">
    <path d="M17.3544 20.625H3.60498" stroke="#A1A1A1" stroke-width="1.37516" stroke-linecap="round" stroke-linejoin="round"/>
    <path d="M0.85498 17.8751C0.85498 18.6044 1.1447 19.3039 1.66041 19.8196C1.91576 20.0749 2.2189 20.2775 2.55253 20.4157C2.88617 20.5539 3.24375 20.625 3.60487 20.625" stroke="#A1A1A1" stroke-width="1.37516" stroke-linecap="round" stroke-linejoin="round"/>
    <path d="M0.85498 17.8754C0.85498 17.1461 1.1447 16.4466 1.66041 15.9309C2.17611 15.4152 2.87556 15.1255 3.60487 15.1255" stroke="#A1A1A1" stroke-width="1.37516" stroke-linecap="round" stroke-linejoin="round"/>
    <path d="M17.3544 15.1255H3.60498" stroke="#A1A1A1" stroke-width="1.37516" stroke-linecap="round" stroke-linejoin="round"/>
    <path d="M0.855225 4.12538C0.855225 3.76426 0.926353 3.40667 1.06455 3.07304C1.20274 2.73941 1.4053 2.43626 1.66065 2.18091C1.916 1.92556 2.21915 1.72301 2.55278 1.58481C2.88641 1.44662 3.244 1.37549 3.60512 1.37549" stroke="#A1A1A1" stroke-width="1.37516" stroke-linecap="round" stroke-linejoin="round"/>
    <path d="M17.3544 1.37549L3.60498 1.37549" stroke="#A1A1A1" stroke-width="1.37516" stroke-linecap="round" stroke-linejoin="round"/>
    <path d="M0.85498 4.12549V17.875" stroke="#A1A1A1" stroke-width="1.37516" stroke-linecap="round" stroke-linejoin="round"/>
    <path d="M3.60498 15.1253V1.375" stroke="#A1A1A1" stroke-width="1.37516" stroke-linecap="round" stroke-linejoin="round"/>
    <path d="M17.3542 1.37549V15.125" stroke="#A1A1A1" stroke-width="1.37516" stroke-linecap="round" stroke-linejoin="round"/>
    <path d="M17.3543 15.1255C16.4895 16.931 16.4419 18.7628 17.3543 20.6253" stroke="#A1A1A1" stroke-width="1.37516" stroke-linecap="round" stroke-linejoin="round"/>
</svg>