<svg width="153" height="152" viewBox="0 0 153 152" fill="none" xmlns="http://www.w3.org/2000/svg">
    <path d="M76.3545 47.5C81.1045 28.7494 99.0447 19.1752 138.105 19C138.729 18.9977 139.348 19.1189 139.925 19.3568C140.502 19.5947 141.027 19.9445 141.469 20.386C141.91 20.8276 142.26 21.3521 142.498 21.9295C142.736 22.5069 142.857 23.1256 142.855 23.75V109.25C142.855 110.51 142.354 111.718 141.463 112.609C140.572 113.5 139.364 114 138.105 114C100.105 114 85.4241 121.662 76.3545 133M76.3545 47.5C71.6045 28.7494 53.6644 19.1752 14.6045 19C13.9801 18.9977 13.3614 19.1189 12.784 19.3568C12.2066 19.5947 11.6821 19.9445 11.2405 20.386C10.799 20.8276 10.4492 21.3521 10.2113 21.9295C9.97343 22.5069 9.85217 23.1256 9.85453 23.75V108.677C9.85453 111.61 11.6714 114 14.6045 114C52.6045 114 67.3384 121.719 76.3545 133M76.3545 47.5V133" stroke="#37B2FF" stroke-width="4" stroke-linecap="round" stroke-linejoin="round"/>
    <rect x="25.8905" y="54.7202" width="98.496" height="37.696" fill="white"/>
    <path d="M38.8127 83.3682V75.2842L39.659 77.6189L30.7871 62.9394H34.8437L41.9646 74.7589H39.6882L46.8675 62.9394H50.603L41.7311 77.6189L42.6066 75.2842V83.3682H38.8127ZM58.003 83.5725C56.4076 83.5725 54.9873 83.232 53.7421 82.551C52.497 81.8506 51.5144 80.8973 50.7946 79.691C50.0747 78.4847 49.7148 77.1131 49.7148 75.576C49.7148 74.0196 50.0747 72.6479 50.7946 71.4611C51.5144 70.2548 52.497 69.3112 53.7421 68.6302C54.9873 67.9493 56.4076 67.6088 58.003 67.6088C59.6179 67.6088 61.0479 67.9493 62.2931 68.6302C63.5577 69.3112 64.5402 70.2451 65.2406 71.4319C65.9605 72.6187 66.3205 74.0001 66.3205 75.576C66.3205 77.1131 65.9605 78.4847 65.2406 79.691C64.5402 80.8973 63.5577 81.8506 62.2931 82.551C61.0479 83.232 59.6179 83.5725 58.003 83.5725ZM58.003 80.4498C58.898 80.4498 59.6957 80.2552 60.3961 79.8661C61.0965 79.477 61.6413 78.9127 62.0304 78.1734C62.439 77.4341 62.6433 76.5683 62.6433 75.576C62.6433 74.5643 62.439 73.6985 62.0304 72.9787C61.6413 72.2393 61.0965 71.6751 60.3961 71.286C59.6957 70.8969 58.9077 70.7023 58.0322 70.7023C57.1372 70.7023 56.3395 70.8969 55.6391 71.286C54.9581 71.6751 54.4134 72.2393 54.0048 72.9787C53.5962 73.6985 53.3919 74.5643 53.3919 75.576C53.3919 76.5683 53.5962 77.4341 54.0048 78.1734C54.4134 78.9127 54.9581 79.477 55.6391 79.8661C56.3395 80.2552 57.1275 80.4498 58.003 80.4498ZM76.4044 83.5725C75.0814 83.5725 73.9141 83.3293 72.9024 82.8429C71.8906 82.337 71.1027 81.5782 70.5385 80.5665C69.9742 79.5353 69.6921 78.2415 69.6921 76.685V67.7839H73.3401V76.1889C73.3401 77.5897 73.6514 78.6404 74.274 79.3408C74.9161 80.0217 75.8208 80.3622 76.9881 80.3622C77.8442 80.3622 78.5835 80.1871 79.2061 79.8369C79.8482 79.4867 80.3443 78.9614 80.6945 78.261C81.0642 77.5605 81.249 76.6948 81.249 75.6636V67.7839H84.897V83.3682H81.4241V79.1657L82.037 80.4498C81.5116 81.4615 80.7431 82.2397 79.7314 82.7845C78.7197 83.3098 77.6107 83.5725 76.4044 83.5725ZM87.1343 83.3682L96.3273 62.9394H100.063L109.285 83.3682H105.316L97.4071 64.9531H98.9247L91.045 83.3682H87.1343ZM91.366 78.6404L92.3875 75.6636H103.419L104.44 78.6404H91.366ZM111.883 83.3682V62.9394H115.677V83.3682H111.883Z" fill="#565656"/>
</svg>