<svg width="20" height="22" viewBox="0 0 20 22" fill="none" xmlns="http://www.w3.org/2000/svg">
    <path d="M9.625 0C8.16631 0 6.76736 0.579463 5.73591 1.61091C4.70446 2.64236 4.125 4.04131 4.125 5.5C4.125 6.95869 4.70446 8.35764 5.73591 9.38909C6.76736 10.4205 8.16631 11 9.625 11C11.0837 11 12.4826 10.4205 13.5141 9.38909C14.5455 8.35764 15.125 6.95869 15.125 5.5C15.125 4.04131 14.5455 2.64236 13.5141 1.61091C12.4826 0.579463 11.0837 0 9.625 0ZM5.5 5.5C5.5 4.40598 5.9346 3.35677 6.70818 2.58318C7.48177 1.8096 8.53098 1.375 9.625 1.375C10.719 1.375 11.7682 1.8096 12.5418 2.58318C13.3154 3.35677 13.75 4.40598 13.75 5.5C13.75 6.59402 13.3154 7.64323 12.5418 8.41682C11.7682 9.1904 10.719 9.625 9.625 9.625C8.53098 9.625 7.48177 9.1904 6.70818 8.41682C5.9346 7.64323 5.5 6.59402 5.5 5.5ZM2.76237 12.375C2.4002 12.3734 2.04127 12.4433 1.70619 12.5808C1.37112 12.7182 1.0665 12.9205 0.809827 13.1761C0.553153 13.4316 0.349483 13.7353 0.210509 14.0698C0.0715353 14.4042 -3.66694e-06 14.7628 1.40974e-10 15.125C1.40974e-10 17.4501 1.14538 19.2033 2.93563 20.3459C4.69838 21.4693 7.07438 22 9.625 22C12.1756 22 14.5516 21.4693 16.3144 20.3459C18.1046 19.2046 19.25 17.4487 19.25 15.125C19.25 14.3957 18.9603 13.6962 18.4445 13.1805C17.9288 12.6647 17.2293 12.375 16.5 12.375H2.76237ZM1.375 15.125C1.375 14.3646 1.991 13.75 2.76237 13.75H16.5C16.8647 13.75 17.2144 13.8949 17.4723 14.1527C17.7301 14.4106 17.875 14.7603 17.875 15.125C17.875 16.9249 17.0197 18.2655 15.5746 19.1854C14.1034 20.1245 12.0106 20.625 9.625 20.625C7.23938 20.625 5.14663 20.1245 3.67537 19.1854C2.23162 18.2641 1.375 16.9263 1.375 15.125Z" fill="#A1A1A1"/>
</svg>