<svg width="20" height="20" viewBox="0 0 20 20" fill="none" xmlns="http://www.w3.org/2000/svg">
    <g opacity="0.5">
        <path d="M8.93463 15.0099C7.7615 15.0099 6.61471 14.662 5.63929 14.0102C4.66387 13.3585 3.90362 12.4321 3.45468 11.3483C3.00574 10.2645 2.88828 9.07185 3.11715 7.92126C3.34601 6.77067 3.91093 5.71379 4.74046 4.88426C5.56999 4.05473 6.62687 3.48981 7.77746 3.26095C8.92805 3.03208 10.1207 3.14954 11.2045 3.59848C12.2883 4.04742 13.2147 4.80767 13.8665 5.78309C14.5182 6.75851 14.8661 7.9053 14.8661 9.07843C14.8661 9.85736 14.7127 10.6287 14.4146 11.3483C14.1165 12.0679 13.6796 12.7218 13.1288 13.2726C12.578 13.8234 11.9241 14.2603 11.2045 14.5584C10.4849 14.8565 9.71356 15.0099 8.93463 15.0099ZM8.93463 4.33642C7.99986 4.33642 7.08609 4.61361 6.30886 5.13293C5.53163 5.65226 4.92586 6.3904 4.56814 7.25401C4.21042 8.11762 4.11682 9.06792 4.29919 9.98472C4.48155 10.9015 4.93168 11.7437 5.59266 12.4046C6.25364 13.0656 7.09578 13.5158 8.01258 13.6981C8.92939 13.8805 9.87968 13.7869 10.7433 13.4292C11.6069 13.0714 12.345 12.4657 12.8644 11.6884C13.3837 10.9112 13.6609 9.99744 13.6609 9.06267C13.6609 7.80919 13.1629 6.60705 12.2766 5.72071C11.3903 4.83436 10.1881 4.33642 8.93463 4.33642Z" fill="black"/>
        <path d="M16.2055 16.9396C16.1279 16.94 16.051 16.9248 15.9793 16.8951C15.9076 16.8653 15.8426 16.8215 15.788 16.7663L12.5348 13.5131C12.4304 13.4011 12.3736 13.2529 12.3763 13.0999C12.379 12.9468 12.441 12.8008 12.5493 12.6926C12.6575 12.5843 12.8035 12.5223 12.9566 12.5196C13.1096 12.5169 13.2578 12.5737 13.3698 12.6781L16.623 15.9313C16.7336 16.0421 16.7958 16.1923 16.7958 16.3488C16.7958 16.5054 16.7336 16.6555 16.623 16.7663C16.5684 16.8215 16.5034 16.8653 16.4317 16.8951C16.36 16.9248 16.2831 16.94 16.2055 16.9396Z" fill="black"/>
    </g>
</svg>
